<?xml version="1.0" encoding="UTF-8"?>
<svg id="Layer_2" data-name="Layer 2" xmlns="http://www.w3.org/2000/svg" viewBox="0 0 313.39 320.42">
  <defs>
    <style>
      .cls-1 {
        fill: #e3d740;
      }

      .cls-2 {
        fill: #fff;
      }

      .cls-3 {
        fill: #9987bd;
      }

      .cls-4 {
        fill: #9987bc;
      }

      .cls-5 {
        fill: #9886bc;
      }

      .cls-6 {
        fill: #9886bb;
      }

      .cls-7 {
        fill: #9786bb;
      }

      .cls-8 {
        fill: #9785bb;
      }

      .cls-9 {
        fill: #9282b6;
      }

      .cls-10 {
        fill: #9281b6;
      }

      .cls-11 {
        fill: #8779ab;
      }

      .cls-12 {
        fill: #8779aa;
      }

      .cls-13 {
        fill: #8a7bad;
      }

      .cls-14 {
        fill: #8a7cae;
      }

      .cls-15 {
        fill: #9d8ac1;
      }

      .cls-16 {
        fill: #9c89c0;
      }

      .cls-17 {
        fill: #8d7db0;
      }

      .cls-18 {
        fill: #8d7daf;
      }

      .cls-19 {
        fill: #9080b4;
      }

      .cls-20 {
        fill: #9080b3;
      }

      .cls-21 {
        fill: #9382b6;
      }

      .cls-22 {
        fill: #9382b7;
      }

      .cls-23 {
        fill: #9181b5;
      }

      .cls-24 {
        fill: #9180b4;
      }

      .cls-25 {
        fill: #8c7daf;
      }

      .cls-26 {
        fill: #8c7db0;
      }

      .cls-27 {
        fill: #8e7eb1;
      }

      .cls-28 {
        fill: #8e7fb2;
      }

      .cls-29 {
        fill: #8f7fb3;
      }

      .cls-30 {
        fill: #8f7fb2;
      }

      .cls-31 {
        fill: #8d7eb0;
      }

      .cls-32 {
        fill: #8577a8;
      }

      .cls-33 {
        fill: #d86c77;
      }

      .cls-34 {
        fill: #9483b8;
      }

      .cls-35 {
        fill: #9483b7;
      }

      .cls-36 {
        fill: #8275a5;
      }

      .cls-37 {
        fill: #9b88bf;
      }

      .cls-38 {
        fill: #9b89bf;
      }

      .cls-39 {
        fill: #9584b9;
      }

      .cls-40 {
        fill: #9684ba;
      }

      .cls-41 {
        fill: #9685ba;
      }

      .cls-42 {
        fill: #9583b8;
      }

      .cls-43 {
        fill: #8b7caf;
      }

      .cls-44 {
        fill: #8b7cae;
      }

      .cls-45 {
        fill: #897aac;
      }

      .cls-46 {
        fill: #9a88be;
      }

      .cls-47 {
        fill: #887aab;
      }

      .cls-48 {
        fill: #8879ab;
      }

      .cls-49 {
        fill: #897bac;
      }

      .cls-50 {
        fill: #8678a9;
      }

      .cls-51 {
        fill: #8678aa;
      }

      .cls-52 {
        fill: #8477a7;
      }

      .cls-53 {
        fill: #8476a7;
      }

      .cls-54 {
        fill: #4d4463;
      }

      .cls-55 {
        fill: #8376a6;
      }

      .cls-56 {
        fill: #44385e;
      }

      .cls-56, .cls-57 {
        stroke: #413856;
        stroke-miterlimit: 10;
      }

      .cls-57 {
        fill: #524873;
      }

      .cls-58 {
        opacity: .32;
      }

      .cls-58, .cls-59 {
        fill: #acc570;
      }

      .cls-59 {
        opacity: .49;
      }
    </style>
  </defs>
  <g id="Layer_1-2" data-name="Layer 1">
    <polygon class="cls-1" points="133.49 37.43 135.81 52.31 142.54 51.57 140.46 36.66 133.49 37.43"/>
    <rect class="cls-1" x="126.51" y="23.77" width="22.36" height="14.06" rx="4.61" ry="4.61" transform="translate(-3.4 30.85) rotate(-12.63)"/>
    <polygon class="cls-1" points="162.09 41.14 160.68 51.58 165.33 52.42 166.91 42.02 162.09 41.14"/>
    <rect class="cls-1" x="157.26" y="32.29" width="15.63" height="9.83" rx="3.22" ry="3.22" transform="translate(8.5 -26.97) rotate(9.59)"/>
    <polygon class="cls-1" points="186.98 42.08 181.88 56.26 188.13 58.84 193.47 44.75 186.98 42.08"/>
    <rect class="cls-1" x="182.41" y="30.88" width="22.36" height="14.06" rx="4.61" ry="4.61" transform="translate(27.76 -68.92) rotate(21.71)"/>
    <polygon class="cls-1" points="212.26 55.76 205.98 67.1 209.8 68.87 216.23 57.59 212.26 55.76"/>
    <path class="cls-1" d="M215.13,60.48l-4.53-2.4c-2.11-1.12-2.89-3.7-1.74-5.75h0c1.15-2.04,3.82-2.8,5.93-1.68l4.53,2.4c2.11,1.12,2.89,3.7,1.74,5.75h0c-1.15,2.04-3.82,2.8-5.93,1.68Z"/>
    <polygon class="cls-1" points="234.25 69.04 225.12 81.02 230.31 85.36 239.63 73.53 234.25 69.04"/>
    <rect class="cls-1" x="229.35" y="60.23" width="22.36" height="14.06" rx="4.61" ry="4.61" transform="translate(110.32 -145.87) rotate(42.96)"/>
    <polygon class="cls-1" points="254.24 83.95 240.62 96.86 246.14 103.23 259.96 90.55 254.24 83.95"/>
    <rect class="cls-1" x="248.57" y="74.72" width="27.86" height="17.51" rx="5.75" ry="5.75" transform="translate(150.7 -168.27) rotate(48.41)"/>
    <polygon class="cls-1" points="263.77 112.18 254.27 118.42 256.76 122.98 266.36 116.91 263.77 112.18"/>
    <path class="cls-1" d="M265.71,118.44l-3.13-5.56c-1.46-2.59-.61-5.95,1.88-7.46h0c2.49-1.52,5.71-.64,7.17,1.95l3.13,5.56c1.46,2.59,.61,5.95-1.88,7.46h0c-2.49,1.52-5.71,.64-7.17-1.95Z"/>
    <polygon class="cls-1" points="277.43 137.37 262.76 140.8 263.99 147.45 278.71 144.27 277.43 137.37"/>
    <rect class="cls-1" x="272.16" y="133.37" width="22.36" height="14.06" rx="4.61" ry="4.61" transform="translate(365.83 -164.87) rotate(78.76)"/>
    <polygon class="cls-1" points="276.32 175.01 267.94 175.06 267.79 178.82 276.17 178.91 276.32 175.01"/>
    <rect class="cls-1" x="272.93" y="173.47" width="12.44" height="7.82" rx="2.57" ry="2.57" transform="translate(464.21 -96.74) rotate(91.59)"/>
    <polygon class="cls-1" points="280.34 199.73 265.55 196.84 263.95 203.41 278.68 206.54 280.34 199.73"/>
    <rect class="cls-1" x="273.31" y="197.88" width="22.36" height="14.06" rx="4.61" ry="4.61" transform="translate(548 -26.36) rotate(102.96)"/>
    <polygon class="cls-1" points="266.21 227.36 257.1 223.79 255.31 227.81 264.36 231.53 266.21 227.36"/>
    <rect class="cls-1" x="261" y="226.59" width="14.53" height="9.13" rx="3" ry="3" transform="translate(586.6 76.03) rotate(113.27)"/>
    <polygon class="cls-1" points="255.75 254.27 244.17 244.64 239.61 249.64 251.03 259.45 255.75 254.27"/>
    <rect class="cls-1" x="245.72" y="253.78" width="22.36" height="14.06" rx="4.61" ry="4.61" transform="translate(622.52 242.13) rotate(131.64)"/>
    <polygon class="cls-1" points="230.77 275.61 224.21 266.39 220.22 269.35 226.63 278.68 230.77 275.61"/>
    <path class="cls-1" d="M225.17,278.15l4.87-3.7c2.26-1.72,5.43-1.15,7.04,1.28h0c1.61,2.42,1.07,5.81-1.19,7.53l-4.87,3.7c-2.26,1.72-5.43,1.15-7.04-1.28h0c-1.61-2.42-1.07-5.81,1.19-7.53Z"/>
    <polygon class="cls-1" points="208.1 294.23 202.57 280.22 196.17 282.42 201.47 296.51 208.1 294.23"/>
    <rect class="cls-1" x="194.8" y="293.49" width="22.36" height="14.06" rx="4.61" ry="4.61" transform="translate(501.13 514.14) rotate(160.32)"/>
    <polygon class="cls-1" points="174.48 306.3 171.15 291.61 164.49 292.8 167.58 307.54 174.48 306.3"/>
    <rect class="cls-1" x="160.24" y="305.16" width="22.36" height="14.06" rx="4.61" ry="4.61" transform="translate(398.74 586.38) rotate(169.11)"/>
    <polygon class="cls-1" points="144.37 303.03 143.86 293.74 139.68 293.78 140.04 303.07 144.37 303.03"/>
    <rect class="cls-1" x="134.99" y="301.96" width="13.81" height="8.68" rx="2.85" ry="2.85" transform="translate(290.42 609.44) rotate(178.75)"/>
    <polygon class="cls-1" points="109.92 304.71 115.09 290.56 108.85 287.95 103.45 302.01 109.92 304.71"/>
    <rect class="cls-1" x="92.97" y="300.97" width="22.36" height="14.06" rx="4.61" ry="4.61" transform="translate(85.54 632.6) rotate(-158.03)"/>
    <polygon class="cls-1" points="82.16 289.83 88.59 279.89 84.26 276.81 77.68 286.64 82.16 289.83"/>
    <rect class="cls-1" x="68.39" y="285.83" width="17.57" height="11.04" rx="3.62" ry="3.62" transform="translate(-25.55 574.7) rotate(-145.24)"/>
    <polygon class="cls-1" points="54.04 274.27 64.02 262.99 59.17 258.28 49 269.39 54.04 274.27"/>
    <rect class="cls-1" x="36.28" y="268.19" width="22.36" height="14.06" rx="4.61" ry="4.61" transform="translate(-107.24 507.74) rotate(-136.58)"/>
    <polygon class="cls-1" points="39.54 249.63 47.72 243.32 45.29 239.19 37.02 245.35 39.54 249.63"/>
    <path class="cls-1" d="M37.53,243.89l3.04,5.03c1.41,2.34,.81,5.52-1.33,7.06h0c-2.15,1.54-5.06,.89-6.47-1.45l-3.04-5.03c-1.41-2.34-.81-5.52,1.33-7.06h0c2.15-1.54,5.06-.89,6.47,1.45Z"/>
    <polygon class="cls-1" points="20.01 232.75 37.09 224.62 33.85 217.16 16.64 225.03 20.01 232.75"/>
    <rect class="cls-1" x="-1.19" y="222.34" width="26.86" height="16.89" rx="5.54" ry="5.54" transform="translate(-193.69 335.69) rotate(-113.96)"/>
    <polygon class="cls-1" points="15.06 206.35 29.87 203.61 28.95 196.91 14.09 199.41 15.06 206.35"/>
    <rect class="cls-1" x="-1.89" y="196.03" width="22.36" height="14.06" rx="4.61" ry="4.61" transform="translate(-190.09 242.61) rotate(-98.6)"/>
    <polygon class="cls-1" points="15.02 178.36 26.15 177.46 26.08 170.7 14.94 171.35 15.02 178.36"/>
    <path class="cls-1" d="M16.2,170.05l.16,8.3c.08,3.87-2.2,7.11-5.06,7.22h0c-2.86,.1-5.26-2.97-5.34-6.84l-.16-8.3c-.08-3.87,2.2-7.11,5.06-7.22h0c2.86-.1,5.26,2.97,5.34,6.84Z"/>
    <polygon class="cls-1" points="12.57 149.67 27.43 152.18 28.86 145.56 14.05 142.81 12.57 149.67"/>
    <rect class="cls-1" x="-2.89" y="137.57" width="22.36" height="14.06" rx="4.61" ry="4.61" transform="translate(-135.06 123.93) rotate(-78.52)"/>
    <polygon class="cls-1" points="23.44 121.65 33.72 125.96 35.79 121.24 25.58 116.76 23.44 121.65"/>
    <path class="cls-1" d="M27.12,116.41l-2.47,5.82c-1.15,2.71-4.22,3.95-6.82,2.76h0c-2.6-1.2-3.79-4.39-2.64-7.1l2.47-5.82c1.15-2.71,4.22-3.95,6.82-2.76h0c2.6,1.2,3.79,4.39,2.64,7.1Z"/>
    <polygon class="cls-1" points="31.94 97.37 44.66 105.43 48.54 99.89 35.95 91.62 31.94 97.37"/>
    <rect class="cls-1" x="18.77" y="84" width="22.36" height="14.06" rx="4.61" ry="4.61" transform="translate(-62.14 64.52) rotate(-55.73)"/>
    <polygon class="cls-1" points="48.97 74.93 59.05 86.13 64.28 81.84 54.39 70.48 48.97 74.93"/>
    <rect class="cls-1" x="37.59" y="61.26" width="22.36" height="14.06" rx="4.61" ry="4.61" transform="translate(-32.51 47.43) rotate(-40.07)"/>
    <polygon class="cls-1" points="70.67 63.31 76.01 71.68 79.87 69.46 74.68 61 70.67 63.31"/>
    <rect class="cls-1" x="63.89" y="54.34" width="14.74" height="9.27" rx="3.04" ry="3.04" transform="translate(-20.1 44.5) rotate(-30.61)"/>
    <polygon class="cls-1" points="91.91 47.46 98.95 60.78 105.07 57.89 98.26 44.46 91.91 47.46"/>
    <rect class="cls-1" x="81.3" y="33.09" width="22.36" height="14.06" rx="4.61" ry="4.61" transform="translate(-8.23 44.5) rotate(-25.94)"/>
    <polygon class="cls-1" points="114.52 43.01 117.16 53.2 121.79 52.23 119.31 41.99 114.52 43.01"/>
    <rect class="cls-1" x="107.98" y="33.31" width="15.63" height="9.83" rx="3.22" ry="3.22" transform="translate(-5.56 26.24) rotate(-12.63)"/>
    <ellipse class="cls-59" cx="93.64" cy="267.62" rx="2.38" ry="7.75" transform="translate(-189.85 272.39) rotate(-71.68)"/>
    <ellipse class="cls-58" cx="126.24" cy="278.07" rx="1.68" ry="2.29" transform="translate(-168.4 358.39) rotate(-80.83)"/>
    <ellipse class="cls-59" cx="150.08" cy="259.45" rx="11.62" ry="3.64" transform="translate(-54.81 40.68) rotate(-13.08)"/>
    <ellipse class="cls-58" cx="154.98" cy="273.46" rx="4.01" ry="6.23" transform="translate(-139.67 382.89) rotate(-80.83)"/>
    <ellipse class="cls-58" cx="211.75" cy="253.48" rx="4.01" ry="6.23" transform="translate(-72.23 422.14) rotate(-80.83)"/>
    <ellipse class="cls-58" cx="122.47" cy="275.62" rx="1.68" ry="2.29" transform="translate(-169.14 352.61) rotate(-80.83)"/>
    <ellipse class="cls-58" cx="185.06" cy="262.36" rx="4.01" ry="6.23" transform="translate(-103.43 403.26) rotate(-80.83)"/>
    <ellipse class="cls-59" cx="68.64" cy="249.63" rx="1.48" ry="4.84" transform="translate(-189.91 236.31) rotate(-71.68)"/>
    <ellipse class="cls-58" cx="122.47" cy="275.62" rx="1.68" ry="2.29" transform="translate(-169.14 352.61) rotate(-80.83)"/>
    <ellipse class="cls-59" cx="167.89" cy="76.35" rx="3.35" ry="10.91" transform="translate(42.63 211.73) rotate(-71.68)"/>
    <ellipse class="cls-58" cx="197.84" cy="84.38" rx="4.01" ry="6.23" transform="translate(83.02 266.25) rotate(-80.83)"/>
    <g>
      <ellipse class="cls-36" cx="146.9" cy="173.47" rx="120.89" ry="122.86"/>
      <ellipse class="cls-36" cx="146.8" cy="173.34" rx="120.77" ry="122.74"/>
      <ellipse class="cls-55" cx="146.69" cy="173.21" rx="120.65" ry="122.62"/>
      <ellipse class="cls-55" cx="146.59" cy="173.09" rx="120.54" ry="122.5"/>
      <ellipse class="cls-53" cx="146.48" cy="172.96" rx="120.42" ry="122.38"/>
      <ellipse class="cls-52" cx="146.38" cy="172.83" rx="120.3" ry="122.26"/>
      <ellipse class="cls-32" cx="146.27" cy="172.7" rx="120.18" ry="122.14"/>
      <ellipse class="cls-32" cx="146.17" cy="172.58" rx="120.07" ry="122.02"/>
      <ellipse class="cls-50" cx="146.06" cy="172.45" rx="119.95" ry="121.9"/>
      <ellipse class="cls-50" cx="145.96" cy="172.32" rx="119.83" ry="121.78"/>
      <ellipse class="cls-51" cx="145.85" cy="172.19" rx="119.71" ry="121.66"/>
      <ellipse class="cls-12" cx="145.75" cy="172.07" rx="119.6" ry="121.54"/>
      <ellipse class="cls-11" cx="145.64" cy="171.94" rx="119.48" ry="121.43"/>
      <ellipse class="cls-48" cx="145.54" cy="171.81" rx="119.36" ry="121.31"/>
      <ellipse class="cls-47" cx="145.43" cy="171.68" rx="119.24" ry="121.19"/>
      <ellipse class="cls-45" cx="145.33" cy="171.56" rx="119.12" ry="121.07"/>
      <ellipse class="cls-49" cx="145.22" cy="171.43" rx="119.01" ry="120.95"/>
      <ellipse class="cls-13" cx="145.12" cy="171.3" rx="118.89" ry="120.83"/>
      <ellipse class="cls-13" cx="145.01" cy="171.17" rx="118.77" ry="120.71"/>
      <ellipse class="cls-14" cx="144.91" cy="171.05" rx="118.65" ry="120.59"/>
      <ellipse class="cls-44" cx="144.8" cy="170.92" rx="118.54" ry="120.47"/>
      <ellipse class="cls-43" cx="144.7" cy="170.79" rx="118.42" ry="120.35"/>
      <ellipse class="cls-25" cx="144.59" cy="170.66" rx="118.3" ry="120.23"/>
      <ellipse class="cls-26" cx="144.49" cy="170.54" rx="118.18" ry="120.11"/>
      <ellipse class="cls-17" cx="144.38" cy="170.41" rx="118.06" ry="119.99"/>
      <ellipse class="cls-31" cx="144.28" cy="170.28" rx="117.95" ry="119.87"/>
      <ellipse class="cls-27" cx="144.17" cy="170.16" rx="117.83" ry="119.75"/>
      <ellipse class="cls-27" cx="144.07" cy="170.03" rx="117.71" ry="119.63"/>
      <ellipse class="cls-28" cx="143.96" cy="169.9" rx="117.59" ry="119.51"/>
      <ellipse class="cls-30" cx="143.86" cy="169.77" rx="117.48" ry="119.39"/>
      <ellipse class="cls-29" cx="143.75" cy="169.65" rx="117.36" ry="119.27"/>
      <ellipse class="cls-20" cx="143.65" cy="169.52" rx="117.24" ry="119.15"/>
      <ellipse class="cls-19" cx="143.54" cy="169.39" rx="117.12" ry="119.03"/>
      <ellipse class="cls-24" cx="143.44" cy="169.26" rx="117" ry="118.91"/>
      <ellipse class="cls-23" cx="143.33" cy="169.14" rx="116.89" ry="118.79"/>
      <ellipse class="cls-23" cx="143.23" cy="169.01" rx="116.77" ry="118.67"/>
      <ellipse class="cls-10" cx="143.12" cy="168.88" rx="116.65" ry="118.55"/>
      <ellipse class="cls-9" cx="143.02" cy="168.75" rx="116.53" ry="118.43"/>
      <ellipse class="cls-21" cx="142.91" cy="168.63" rx="116.42" ry="118.31"/>
      <ellipse class="cls-22" cx="142.81" cy="168.5" rx="116.3" ry="118.19"/>
      <ellipse class="cls-35" cx="142.7" cy="168.37" rx="116.18" ry="118.07"/>
      <ellipse class="cls-34" cx="142.6" cy="168.24" rx="116.06" ry="117.95"/>
      <ellipse class="cls-42" cx="142.49" cy="168.12" rx="115.94" ry="117.83"/>
      <ellipse class="cls-39" cx="142.39" cy="167.99" rx="115.83" ry="117.72"/>
      <ellipse class="cls-39" cx="142.28" cy="167.86" rx="115.71" ry="117.6"/>
      <ellipse class="cls-40" cx="142.18" cy="167.73" rx="115.59" ry="117.48"/>
      <ellipse class="cls-41" cx="142.07" cy="167.61" rx="115.47" ry="117.36"/>
      <ellipse class="cls-8" cx="141.97" cy="167.48" rx="115.36" ry="117.24"/>
      <ellipse class="cls-7" cx="141.86" cy="167.35" rx="115.24" ry="117.12"/>
      <ellipse class="cls-6" cx="141.76" cy="167.23" rx="115.12" ry="117"/>
      <ellipse class="cls-5" cx="141.65" cy="167.1" rx="115" ry="116.88"/>
      <ellipse class="cls-4" cx="141.55" cy="166.97" rx="114.88" ry="116.76"/>
      <ellipse class="cls-3" cx="141.44" cy="166.84" rx="114.77" ry="116.64"/>
      <ellipse class="cls-3" cx="141.34" cy="166.72" rx="114.65" ry="116.52"/>
      <ellipse class="cls-46" cx="141.23" cy="166.59" rx="114.53" ry="116.4"/>
      <ellipse class="cls-46" cx="141.13" cy="166.46" rx="114.41" ry="116.28"/>
      <ellipse class="cls-37" cx="141.02" cy="166.33" rx="114.3" ry="116.16"/>
      <ellipse class="cls-38" cx="140.92" cy="166.21" rx="114.18" ry="116.04"/>
      <ellipse class="cls-16" cx="140.81" cy="166.08" rx="114.06" ry="115.92"/>
      <ellipse class="cls-16" cx="140.71" cy="165.95" rx="113.94" ry="115.8"/>
      <ellipse class="cls-15" cx="140.6" cy="165.82" rx="113.82" ry="115.68"/>
      <ellipse class="cls-15" cx="140.5" cy="165.7" rx="113.71" ry="115.56"/>
    </g>
    <path class="cls-18" d="M83.23,123.27s31.48,14.17,29.11,7.13"/>
    <g>
      <path class="cls-2" d="M82.23,118.96s31.48,14.17,29.11,7.13"/>
      <path class="cls-2" d="M81.6,120.04c3.75,1.69,7.56,3.25,11.4,4.73,2.97,1.14,5.98,2.23,9.03,3.13,2.32,.68,4.82,1.43,7.27,1.4,2.07-.02,3.99-1.22,3.25-3.54-.49-1.53-2.9-.87-2.41,.66,.03,.08,.14,.6,.08,.22,.04,.24-.05,.24,.02,.09-.11,.26,.13-.23-.03,.04,.15-.25,.26-.1,.01-.09,.31-.02-.61,.11-.34,.08-.4,.05-.81,.03-1.21,0-2.23-.14-4.59-.87-6.78-1.54-5.24-1.61-10.36-3.65-15.4-5.79-1.21-.51-2.41-1.03-3.61-1.57-1.46-.65-2.73,1.5-1.26,2.16h0Z"/>
    </g>
    <path class="cls-57" d="M116.3,165.76c0,10.94-8.87,19.81-19.81,19.81s-19.81-8.87-19.81-19.81c0-8.21,4.99-15.25,12.1-18.26,2.37-1,4.98-1.56,7.71-1.56,10.94,0,19.81,8.87,19.81,19.81Z"/>
    <path class="cls-54" d="M116.05,209.05c19.83-4.37,38.31-.64,58.18-.84-11.21,18.63-44.78,15.52-58.18,.84h0Z"/>
    <path class="cls-2" d="M132,208.22c.09-.2-.04,2.65,1.11,3.2,1.27,.61,3.77,1.37,3.77,.96s.89-3.96,.89-3.96l-5.77-.2Z"/>
    <path class="cls-2" d="M159.23,209.08c-.33-.38,0,2.48-.91,3.04-1.2,.73-3.29,1.41-3.29,1,0-.4-.76-4.04-.76-4.04h4.96Z"/>
    <path class="cls-18" d="M198.44,121.11s-31.65,15.72-28.19,7.54"/>
    <g>
      <path class="cls-2" d="M198.69,118.16s-30.95,12.72-29.23,6.74"/>
      <path class="cls-2" d="M198.36,116.95c-3.18,1.3-6.39,2.52-9.62,3.68-5,1.8-10.29,3.81-15.55,4.5-.5,.07-1,.11-1.5,.11-.2,0-.4,0-.6-.02-.36-.03,.05,.03-.33-.05-.34-.07-.2-.06-.21-.06-.1,.04-.05-.08,.08,.14-.07-.11-.03,.19,.03-.02,.41-1.56-2-2.22-2.41-.66-1.34,5.04,7.68,2.64,9.75,2.11,5.76-1.48,11.38-3.55,16.92-5.68,1.37-.53,2.74-1.06,4.1-1.62,1.47-.6,.83-3.02-.66-2.41h0Z"/>
    </g>
    <path class="cls-56" d="M109.55,164.88c0,7.85-6.36,14.21-14.21,14.21s-14.21-6.36-14.21-14.21c0-5.89,3.58-10.94,8.68-13.1,1.7-.72,3.57-1.12,5.53-1.12,7.85,0,14.21,6.36,14.21,14.21Z"/>
    <path class="cls-2" d="M103.32,155.7s3.46,3.27,4.96,3.5,7.34-2.33-1.13-6.14c-8.47-3.81-3.83,2.63-3.83,2.63Z"/>
    <path class="cls-57" d="M208.36,164.19c0,11.45-9.28,20.73-20.73,20.73s-20.73-9.28-20.73-20.73c0-8.59,5.22-15.96,12.66-19.1,2.48-1.05,5.21-1.63,8.07-1.63,11.45,0,20.73,9.28,20.73,20.73Z"/>
    <path class="cls-56" d="M201.3,163.27c0,8.22-6.66,14.88-14.88,14.88s-14.88-6.66-14.88-14.88c0-6.16,3.75-11.45,9.09-13.71,1.78-.75,3.74-1.17,5.79-1.17,8.22,0,14.88,6.66,14.88,14.88Z"/>
    <path class="cls-2" d="M194.78,153.66s3.62,3.42,5.19,3.67,7.68-2.43-1.19-6.42c-8.87-3.99-4.01,2.76-4.01,2.76Z"/>
  </g>
  <g id="Layer_12" data-name="Layer 12">
    <ellipse class="cls-33" cx="289.44" cy="15.09" rx="15" ry="24" transform="translate(249.22 302.12) rotate(-85.01)"/>
  </g>
</svg>