<?xml version="1.0" encoding="UTF-8"?>
<svg id="Layer_1" data-name="Layer 1" xmlns="http://www.w3.org/2000/svg" viewBox="0 0 168.37 119.12">
  <defs>
    <style>
      .cls-1 {
        fill: #010101;
      }

      .cls-2 {
        fill: #80aea6;
      }

      .cls-3 {
        fill: #81b0a7;
      }

      .cls-4 {
        fill: #81afa6;
      }

      .cls-5 {
        fill: #7eada4;
      }

      .cls-6 {
        fill: #98c5bf;
      }

      .cls-7 {
        fill: #96c4bd;
      }

      .cls-8 {
        fill: #7daba2;
      }

      .cls-9 {
        fill: #7daca3;
      }

      .cls-10 {
        fill: #97c5be;
      }

      .cls-11 {
        fill: #96c3bc;
      }

      .cls-12 {
        fill: #7faea5;
      }

      .cls-13 {
        fill: #7caba2;
      }

      .cls-14 {
        fill: #9ecbc5;
      }

      .cls-15 {
        fill: #a0cdc7;
      }

      .cls-16 {
        fill: #9fccc6;
      }

      .cls-17 {
        fill: #86b4ac;
      }

      .cls-18 {
        fill: #84b3aa;
      }

      .cls-19 {
        fill: #84b2aa;
      }

      .cls-20 {
        fill: #91beb7;
      }

      .cls-21 {
        fill: #91bfb8;
      }

      .cls-22 {
        fill: #85b3ab;
      }

      .cls-23 {
        fill: #9ccac3;
      }

      .cls-24 {
        fill: #89b7af;
      }

      .cls-25 {
        fill: #9dcac4;
      }

      .cls-26 {
        fill: #9bc9c2;
      }

      .cls-27 {
        fill: #9bc8c1;
      }

      .cls-28 {
        fill: #a0cec7;
      }

      .cls-29 {
        fill: #8cb9b2;
      }

      .cls-30 {
        fill: #8fbdb5;
      }

      .cls-31 {
        fill: #92c0b9;
      }

      .cls-32 {
        fill: #8dbbb3;
      }

      .cls-33 {
        fill: #8dbab3;
      }

      .cls-34 {
        fill: #90bdb6;
      }

      .cls-35 {
        fill: #8ebcb4;
      }

      .cls-36 {
        fill: #8bb9b1;
      }

      .cls-37 {
        fill: #a5d2cc;
      }

      .cls-38 {
        fill: #aad8d2;
      }

      .cls-39 {
        fill: #a7d4ce;
      }

      .cls-40 {
        fill: #a7d5cf;
      }

      .cls-41 {
        fill: #a9d7d1;
      }

      .cls-42 {
        fill: #a6d3cd;
      }

      .cls-43 {
        fill: #abd9d3;
      }

      .cls-44 {
        fill: #adddd7;
      }

      .cls-45 {
        fill: #addcd5;
      }

      .cls-46 {
        fill: #acdad4;
      }

      .cls-47 {
        fill: #a3d0ca;
      }

      .cls-48 {
        fill: #a4d1cb;
      }

      .cls-49 {
        fill: #a8d6d0;
      }

      .cls-50 {
        fill: #93c1b9;
      }

      .cls-51 {
        fill: #a2d0c9;
      }

      .cls-52 {
        fill: #9ac7c0;
      }

      .cls-53 {
        fill: #a1cfc8;
      }

      .cls-54 {
        fill: #94c1ba;
      }

      .cls-55 {
        fill: #95c2bb;
      }

      .cls-56 {
        fill: #88b6ae;
      }

      .cls-57 {
        fill: #8ab8b0;
      }

      .cls-58 {
        fill: #87b5ad;
      }

      .cls-59 {
        fill: #99c6bf;
      }

      .cls-60 {
        fill: #894f55;
      }

      .cls-61 {
        fill: #83b1a9;
      }

      .cls-62 {
        fill: #82b1a8;
      }

      .cls-63 {
        fill: #7baaa1;
      }
    </style>
  </defs>
  <path class="cls-1" d="M123.72,51.92c8.2,.07,16.41,.13,24.61,.2,3.63,.03,7.32,.27,10.94-.06,3.18-.28,6.33-1.15,8.56-3.57,1.74-1.89-1.08-4.73-2.83-2.83-1.85,2.02-4.62,2.4-7.23,2.49-3.64,.13-7.29-.02-10.93-.05-7.71-.06-15.41-.12-23.12-.18-2.57-.02-2.58,3.98,0,4h0Z"/>
  <path class="cls-1" d="M28.87,103.85l1.9,3.5c.29,.54,.91,.99,1.49,1.15,.33,.1,.66,.12,1,.04,.33-.02,.64-.11,.93-.3,.53-.34,1-.86,1.15-1.49s.08-1.32-.25-1.93l-1.9-3.5c-.29-.54-.91-.99-1.49-1.15-.33-.1-.66-.12-1-.04-.33,.02-.64,.11-.93,.3-.53,.34-1,.86-1.15,1.49s-.08,1.32,.25,1.93h0Z"/>
  <path class="cls-1" d="M23.3,48.11C10.69,50.98,1.47,61.65,0,74.41c-.12,1.07,1.01,2,2,2,1.18,0,1.88-.92,2-2,1.26-11.03,9.62-20.01,20.36-22.45,2.51-.57,1.45-4.43-1.06-3.86h0Z"/>
  <g>
    <circle class="cls-63" cx="78.01" cy="53.32" r="53.32"/>
    <circle class="cls-13" cx="77.98" cy="53.28" r="53.26"/>
    <ellipse class="cls-8" cx="77.95" cy="53.24" rx="53.2" ry="53.21"/>
    <ellipse class="cls-9" cx="77.92" cy="53.19" rx="53.14" ry="53.15"/>
    <ellipse class="cls-5" cx="77.89" cy="53.15" rx="53.08" ry="53.09"/>
    <ellipse class="cls-12" cx="77.86" cy="53.11" rx="53.02" ry="53.03"/>
    <ellipse class="cls-2" cx="77.83" cy="53.07" rx="52.96" ry="52.98"/>
    <ellipse class="cls-4" cx="77.79" cy="53.02" rx="52.9" ry="52.92"/>
    <ellipse class="cls-3" cx="77.76" cy="52.98" rx="52.84" ry="52.86"/>
    <ellipse class="cls-62" cx="77.73" cy="52.94" rx="52.78" ry="52.8"/>
    <ellipse class="cls-61" cx="77.7" cy="52.89" rx="52.72" ry="52.74"/>
    <ellipse class="cls-19" cx="77.67" cy="52.85" rx="52.66" ry="52.69"/>
    <ellipse class="cls-18" cx="77.64" cy="52.81" rx="52.6" ry="52.63"/>
    <ellipse class="cls-22" cx="77.61" cy="52.77" rx="52.54" ry="52.57"/>
    <ellipse class="cls-17" cx="77.58" cy="52.72" rx="52.48" ry="52.51"/>
    <ellipse class="cls-58" cx="77.55" cy="52.68" rx="52.42" ry="52.46"/>
    <ellipse class="cls-56" cx="77.52" cy="52.64" rx="52.36" ry="52.4"/>
    <ellipse class="cls-56" cx="77.49" cy="52.59" rx="52.3" ry="52.34"/>
    <ellipse class="cls-24" cx="77.46" cy="52.55" rx="52.24" ry="52.28"/>
    <ellipse class="cls-57" cx="77.43" cy="52.51" rx="52.18" ry="52.22"/>
    <ellipse class="cls-36" cx="77.4" cy="52.47" rx="52.11" ry="52.17"/>
    <ellipse class="cls-29" cx="77.37" cy="52.42" rx="52.05" ry="52.11"/>
    <ellipse class="cls-33" cx="77.34" cy="52.38" rx="51.99" ry="52.05"/>
    <ellipse class="cls-32" cx="77.31" cy="52.34" rx="51.93" ry="51.99"/>
    <ellipse class="cls-35" cx="77.28" cy="52.29" rx="51.87" ry="51.93"/>
    <ellipse class="cls-30" cx="77.25" cy="52.25" rx="51.81" ry="51.88"/>
    <ellipse class="cls-34" cx="77.22" cy="52.21" rx="51.75" ry="51.82"/>
    <ellipse class="cls-20" cx="77.19" cy="52.17" rx="51.69" ry="51.76"/>
    <ellipse class="cls-21" cx="77.16" cy="52.12" rx="51.63" ry="51.7"/>
    <ellipse class="cls-31" cx="77.13" cy="52.08" rx="51.57" ry="51.65"/>
    <ellipse class="cls-50" cx="77.1" cy="52.04" rx="51.51" ry="51.59"/>
    <ellipse class="cls-54" cx="77.07" cy="51.99" rx="51.45" ry="51.53"/>
    <ellipse class="cls-55" cx="77.04" cy="51.95" rx="51.39" ry="51.47"/>
    <ellipse class="cls-11" cx="77.01" cy="51.91" rx="51.33" ry="51.41"/>
    <ellipse class="cls-7" cx="76.98" cy="51.86" rx="51.27" ry="51.36"/>
    <ellipse class="cls-10" cx="76.95" cy="51.82" rx="51.21" ry="51.3"/>
    <ellipse class="cls-6" cx="76.92" cy="51.78" rx="51.15" ry="51.24"/>
    <ellipse class="cls-59" cx="76.89" cy="51.74" rx="51.09" ry="51.18"/>
    <ellipse class="cls-52" cx="76.86" cy="51.69" rx="51.03" ry="51.12"/>
    <ellipse class="cls-27" cx="76.83" cy="51.65" rx="50.97" ry="51.07"/>
    <ellipse class="cls-26" cx="76.8" cy="51.61" rx="50.91" ry="51.01"/>
    <ellipse class="cls-23" cx="76.77" cy="51.56" rx="50.85" ry="50.95"/>
    <ellipse class="cls-25" cx="76.74" cy="51.52" rx="50.78" ry="50.89"/>
    <ellipse class="cls-14" cx="76.71" cy="51.48" rx="50.72" ry="50.84"/>
    <ellipse class="cls-16" cx="76.68" cy="51.44" rx="50.66" ry="50.78"/>
    <ellipse class="cls-15" cx="76.65" cy="51.39" rx="50.6" ry="50.72"/>
    <ellipse class="cls-28" cx="76.62" cy="51.35" rx="50.54" ry="50.66"/>
    <ellipse class="cls-53" cx="76.59" cy="51.31" rx="50.48" ry="50.6"/>
    <ellipse class="cls-51" cx="76.56" cy="51.26" rx="50.42" ry="50.55"/>
    <ellipse class="cls-47" cx="76.53" cy="51.22" rx="50.36" ry="50.49"/>
    <ellipse class="cls-48" cx="76.5" cy="51.18" rx="50.3" ry="50.43"/>
    <ellipse class="cls-37" cx="76.47" cy="51.14" rx="50.24" ry="50.37"/>
    <ellipse class="cls-42" cx="76.44" cy="51.09" rx="50.18" ry="50.31"/>
    <ellipse class="cls-39" cx="76.41" cy="51.05" rx="50.12" ry="50.26"/>
    <ellipse class="cls-40" cx="76.37" cy="51.01" rx="50.06" ry="50.2"/>
    <ellipse class="cls-49" cx="76.34" cy="50.96" rx="50" ry="50.14"/>
    <ellipse class="cls-41" cx="76.31" cy="50.92" rx="49.94" ry="50.08"/>
    <ellipse class="cls-38" cx="76.28" cy="50.88" rx="49.88" ry="50.03"/>
    <ellipse class="cls-43" cx="76.25" cy="50.84" rx="49.82" ry="49.97"/>
    <ellipse class="cls-46" cx="76.22" cy="50.79" rx="49.76" ry="49.91"/>
    <ellipse class="cls-45" cx="76.19" cy="50.75" rx="49.7" ry="49.85"/>
    <ellipse class="cls-44" cx="76.16" cy="50.71" rx="49.64" ry="49.79"/>
  </g>
  <path class="cls-1" d="M45.63,91.82c-5.44,1.29-10.66,3.58-15.27,6.73-1.08,.74-1.66,2.23-.9,3.42,.69,1.07,2.27,1.68,3.42,.9,4.5-3.07,8.85-4.98,14.08-6.22,1.27-.3,2.15-1.82,1.75-3.08-.43-1.33-1.71-2.07-3.08-1.75h0Z"/>
  <path class="cls-1" d="M61.91,99.87c-3.94,5.17-7.89,10.33-11.83,15.5-.8,1.04-.2,2.84,.9,3.42,1.32,.7,2.57,.22,3.42-.9,3.94-5.17,7.89-10.33,11.83-15.5,.8-1.04,.2-2.84-.9-3.42-1.32-.7-2.57-.22-3.42,.9h0Z"/>
  <g>
    <ellipse class="cls-1" cx="59.6" cy="46.42" rx="5" ry="9.12"/>
    <path class="cls-1" d="M59.6,37.79c2.44,0,4.5,3.95,4.5,8.62s-2.06,8.62-4.5,8.62-4.5-3.95-4.5-8.62,2.06-8.62,4.5-8.62m0-1c-3.04,0-5.5,4.31-5.5,9.62s2.46,9.62,5.5,9.62,5.5-4.31,5.5-9.62-2.46-9.62-5.5-9.62h0Z"/>
  </g>
  <g>
    <path class="cls-1" d="M98.06,56.54c-3.03,0-5.5-4.48-5.5-10s2.47-10,5.5-10,5.5,4.48,5.5,10-2.47,10-5.5,10Z"/>
    <path class="cls-1" d="M98.06,37.04c2.71,0,5,4.35,5,9.5s-2.29,9.5-5,9.5-5-4.35-5-9.5,2.29-9.5,5-9.5m0-1c-3.31,0-6,4.7-6,10.5s2.69,10.5,6,10.5,6-4.7,6-10.5-2.69-10.5-6-10.5h0Z"/>
  </g>
  <path class="cls-60" d="M65.6,63.54h25.27s1.73,8-4.27,10-14.34,1.38-17,0c-1.9-.99-5.15-8.79-4-10Z"/>
</svg>