<?xml version="1.0" encoding="UTF-8"?>
<svg id="Layer_2" data-name="Layer 2" xmlns="http://www.w3.org/2000/svg" viewBox="0 0 162.38 110.96">
  <defs>
    <style>
      .cls-1 {
        fill: #90cdc2;
      }

      .cls-2 {
        fill: #90ccc0;
      }

      .cls-3 {
        fill: #7fb1a7;
      }

      .cls-4 {
        fill: #80b2a8;
      }

      .cls-5 {
        fill: #7eb0a6;
      }

      .cls-6 {
        fill: #7eafa5;
      }

      .cls-7 {
        fill: #95d5c9;
      }

      .cls-8 {
        fill: #98dacd;
      }

      .cls-9 {
        fill: #7dada4;
      }

      .cls-10 {
        fill: #97d8cc;
      }

      .cls-11 {
        fill: #97d7cb;
      }

      .cls-12 {
        fill: #96d6ca;
      }

      .cls-13 {
        fill: #7caca3;
      }

      .cls-14 {
        fill: #7caba2;
      }

      .cls-15 {
        fill: #8ac3b8;
      }

      .cls-16 {
        fill: #91cec3;
      }

      .cls-17 {
        fill: #9ee4d7;
      }

      .cls-18 {
        fill: #9fe5d8;
      }

      .cls-19 {
        fill: #9fe6d9;
      }

      .cls-20 {
        fill: #a0e7da;
      }

      .cls-21 {
        fill: #9de3d5;
      }

      .cls-22 {
        fill: #83b8ae;
      }

      .cls-23 {
        fill: #84b9af;
      }

      .cls-24 {
        fill: #89c1b6;
      }

      .cls-25 {
        fill: #89c2b7;
      }

      .cls-26 {
        fill: #9ce0d3;
      }

      .cls-27 {
        fill: #9de1d4;
      }

      .cls-28 {
        fill: #9bdfd2;
      }

      .cls-29 {
        fill: #9bded1;
      }

      .cls-30 {
        fill: #8ecabe;
      }

      .cls-31 {
        fill: #8ec9bd;
      }

      .cls-32 {
        fill: #8fcbbf;
      }

      .cls-33 {
        fill: #8cc6bb;
      }

      .cls-34 {
        fill: #8cc5ba;
      }

      .cls-35 {
        fill: #8dc7bc;
      }

      .cls-36 {
        fill: #8bc4b9;
      }

      .cls-37 {
        fill: #92d0c5;
      }

      .cls-38 {
        fill: #92cfc4;
      }

      .cls-39 {
        fill: #a3ecde;
      }

      .cls-40 {
        fill: #a5efe1;
      }

      .cls-41 {
        fill: #a4eddf;
      }

      .cls-42 {
        fill: #a4eee0;
      }

      .cls-43 {
        fill: #a2eadd;
      }

      .cls-44 {
        fill: #a2e9dc;
      }

      .cls-45 {
        fill: #93d2c6;
      }

      .cls-46 {
        fill: #81b3a9;
      }

      .cls-47 {
        fill: #81b4aa;
      }

      .cls-48 {
        fill: #9addd0;
      }

      .cls-49 {
        fill: #94d3c7;
      }

      .cls-50 {
        fill: #a1e8db;
      }

      .cls-51 {
        fill: #94d4c8;
      }

      .cls-52 {
        fill: #86bcb2;
      }

      .cls-53 {
        fill: #99dccf;
      }

      .cls-54 {
        fill: #99dbce;
      }

      .cls-55 {
        fill: #88bfb5;
      }

      .cls-56 {
        fill: #87beb4;
      }

      .cls-57 {
        fill: #87bdb3;
      }

      .cls-58 {
        fill: #85bab0;
      }

      .cls-59 {
        fill: #85bbb1;
      }

      .cls-60 {
        fill: #894e54;
      }

      .cls-61 {
        fill: #83b6ad;
      }

      .cls-62 {
        fill: #82b5ab;
      }

      .cls-63 {
        fill: #7baaa1;
      }
    </style>
  </defs>
  <g id="Layer_11" data-name="Layer 11">
    <path d="M.29,48.33c2.82,4.84,8.63,4.96,13.59,5,5.91,.04,11.83,.08,17.74,.13,2.57,.02,2.58-3.98,0-4-5.25-.04-10.5-.08-15.74-.11-3.77-.03-9.87,.86-12.14-3.03-1.3-2.22-4.75-.21-3.45,2.02H.29Z"/>
    <path d="M40.04,80.25c-6.39,2.8-13.03,5.03-19.8,6.74-3.12,.79-1.8,5.61,1.33,4.82,7.2-1.82,14.2-4.26,20.99-7.24,1.24-.54,1.52-2.35,.9-3.42-.75-1.28-2.18-1.44-3.42-.9h0Z"/>
    <path d="M48.11,89.48c-3.82,3.34-7.65,6.67-11.47,10.01-1.71,1.49-3.73,3.01-4.32,5.32-.66,2.57,.59,5.08,3.05,6.03,1.26,.49,2.74-.54,3.08-1.75,.39-1.41-.48-2.59-1.75-3.08,.21,.08,.33,.16,.48,.33,.22,.23-.09-.26,0,.04,.1,.33-.05-.23-.07-.3,.07,.27,.13,.21,.04,.03,.02-.25,.02-.29,0-.09-.02,.16-.01,.16,.02,.02,.04-.12,.04-.13,0-.05-.06,.13-.03,.07,.1-.18,.14-.26,.16-.29,.52-.66,1.36-1.41,2.94-2.63,4.41-3.91l9.43-8.23c1.02-.89,.91-2.63,0-3.54-1.01-1.01-2.52-.89-3.54,0h0Z"/>
  </g>
  <g id="Layer_1-2" data-name="Layer 1">
    <path d="M138.01,55.51c10.74,2.44,19.1,11.42,20.36,22.45,.12,1.07,.83,2,2,2,.99,0,2.12-.92,2-2-1.46-12.77-10.69-23.44-23.29-26.31-2.51-.57-3.58,3.29-1.06,3.86h0Z"/>
    <g>
      <circle class="cls-63" cx="85.14" cy="53.32" r="53.32"/>
      <circle class="cls-14" cx="85.11" cy="53.28" r="53.26"/>
      <ellipse class="cls-13" cx="85.08" cy="53.24" rx="53.2" ry="53.21"/>
      <ellipse class="cls-9" cx="85.05" cy="53.19" rx="53.14" ry="53.15"/>
      <ellipse class="cls-6" cx="85.02" cy="53.15" rx="53.08" ry="53.09"/>
      <ellipse class="cls-5" cx="84.99" cy="53.11" rx="53.02" ry="53.03"/>
      <ellipse class="cls-3" cx="84.96" cy="53.07" rx="52.96" ry="52.98"/>
      <ellipse class="cls-4" cx="84.93" cy="53.02" rx="52.9" ry="52.92"/>
      <ellipse class="cls-46" cx="84.9" cy="52.98" rx="52.84" ry="52.86"/>
      <ellipse class="cls-47" cx="84.87" cy="52.94" rx="52.78" ry="52.8"/>
      <ellipse class="cls-62" cx="84.84" cy="52.89" rx="52.72" ry="52.74"/>
      <ellipse class="cls-61" cx="84.81" cy="52.85" rx="52.66" ry="52.69"/>
      <ellipse class="cls-22" cx="84.77" cy="52.81" rx="52.6" ry="52.63"/>
      <ellipse class="cls-23" cx="84.74" cy="52.77" rx="52.54" ry="52.57"/>
      <ellipse class="cls-58" cx="84.71" cy="52.72" rx="52.48" ry="52.51"/>
      <ellipse class="cls-59" cx="84.68" cy="52.68" rx="52.42" ry="52.46"/>
      <ellipse class="cls-52" cx="84.65" cy="52.64" rx="52.36" ry="52.4"/>
      <ellipse class="cls-57" cx="84.62" cy="52.59" rx="52.3" ry="52.34"/>
      <ellipse class="cls-56" cx="84.59" cy="52.55" rx="52.24" ry="52.28"/>
      <ellipse class="cls-55" cx="84.56" cy="52.51" rx="52.18" ry="52.22"/>
      <ellipse class="cls-24" cx="84.53" cy="52.47" rx="52.11" ry="52.17"/>
      <ellipse class="cls-25" cx="84.5" cy="52.42" rx="52.05" ry="52.11"/>
      <ellipse class="cls-15" cx="84.47" cy="52.38" rx="51.99" ry="52.05"/>
      <ellipse class="cls-36" cx="84.44" cy="52.34" rx="51.93" ry="51.99"/>
      <ellipse class="cls-34" cx="84.41" cy="52.29" rx="51.87" ry="51.93"/>
      <ellipse class="cls-33" cx="84.38" cy="52.25" rx="51.81" ry="51.88"/>
      <ellipse class="cls-35" cx="84.35" cy="52.21" rx="51.75" ry="51.82"/>
      <ellipse class="cls-31" cx="84.32" cy="52.17" rx="51.69" ry="51.76"/>
      <ellipse class="cls-30" cx="84.29" cy="52.12" rx="51.63" ry="51.7"/>
      <ellipse class="cls-32" cx="84.26" cy="52.08" rx="51.57" ry="51.65"/>
      <ellipse class="cls-2" cx="84.23" cy="52.04" rx="51.51" ry="51.59"/>
      <ellipse class="cls-1" cx="84.2" cy="51.99" rx="51.45" ry="51.53"/>
      <ellipse class="cls-16" cx="84.17" cy="51.95" rx="51.39" ry="51.47"/>
      <ellipse class="cls-38" cx="84.14" cy="51.91" rx="51.33" ry="51.41"/>
      <ellipse class="cls-37" cx="84.11" cy="51.86" rx="51.27" ry="51.36"/>
      <ellipse class="cls-45" cx="84.08" cy="51.82" rx="51.21" ry="51.3"/>
      <ellipse class="cls-49" cx="84.05" cy="51.78" rx="51.15" ry="51.24"/>
      <ellipse class="cls-51" cx="84.02" cy="51.74" rx="51.09" ry="51.18"/>
      <ellipse class="cls-7" cx="83.99" cy="51.69" rx="51.03" ry="51.12"/>
      <ellipse class="cls-12" cx="83.96" cy="51.65" rx="50.97" ry="51.07"/>
      <ellipse class="cls-11" cx="83.93" cy="51.61" rx="50.91" ry="51.01"/>
      <ellipse class="cls-10" cx="83.9" cy="51.56" rx="50.85" ry="50.95"/>
      <ellipse class="cls-8" cx="83.87" cy="51.52" rx="50.78" ry="50.89"/>
      <ellipse class="cls-54" cx="83.84" cy="51.48" rx="50.72" ry="50.84"/>
      <ellipse class="cls-53" cx="83.81" cy="51.44" rx="50.66" ry="50.78"/>
      <ellipse class="cls-48" cx="83.78" cy="51.39" rx="50.6" ry="50.72"/>
      <ellipse class="cls-29" cx="83.75" cy="51.35" rx="50.54" ry="50.66"/>
      <ellipse class="cls-28" cx="83.72" cy="51.31" rx="50.48" ry="50.6"/>
      <ellipse class="cls-26" cx="83.69" cy="51.26" rx="50.42" ry="50.55"/>
      <ellipse class="cls-27" cx="83.66" cy="51.22" rx="50.36" ry="50.49"/>
      <ellipse class="cls-21" cx="83.63" cy="51.18" rx="50.3" ry="50.43"/>
      <ellipse class="cls-17" cx="83.6" cy="51.14" rx="50.24" ry="50.37"/>
      <ellipse class="cls-18" cx="83.57" cy="51.09" rx="50.18" ry="50.31"/>
      <ellipse class="cls-19" cx="83.54" cy="51.05" rx="50.12" ry="50.26"/>
      <ellipse class="cls-20" cx="83.51" cy="51.01" rx="50.06" ry="50.2"/>
      <ellipse class="cls-50" cx="83.48" cy="50.96" rx="50" ry="50.14"/>
      <ellipse class="cls-44" cx="83.45" cy="50.92" rx="49.94" ry="50.08"/>
      <ellipse class="cls-43" cx="83.42" cy="50.88" rx="49.88" ry="50.03"/>
      <ellipse class="cls-39" cx="83.39" cy="50.84" rx="49.82" ry="49.97"/>
      <ellipse class="cls-41" cx="83.35" cy="50.79" rx="49.76" ry="49.91"/>
      <ellipse class="cls-42" cx="83.32" cy="50.75" rx="49.7" ry="49.85"/>
      <ellipse class="cls-40" cx="83.29" cy="50.71" rx="49.64" ry="49.79"/>
    </g>
  </g>
  <g id="Layer_12" data-name="Layer 12">
    <g>
      <ellipse cx="68" cy="44.85" rx="5" ry="9.12"/>
      <path d="M68.01,36.22c2.44,0,4.5,3.95,4.5,8.62s-2.06,8.62-4.5,8.62-4.5-3.95-4.5-8.62,2.06-8.62,4.5-8.62m0-1c-3.04,0-5.5,4.31-5.5,9.62s2.46,9.62,5.5,9.62,5.5-4.31,5.5-9.62-2.46-9.62-5.5-9.62h0Z"/>
    </g>
    <g>
      <path d="M106.46,54.96c-3.03,0-5.5-4.48-5.5-10s2.47-10,5.5-10,5.5,4.48,5.5,10-2.47,10-5.5,10Z"/>
      <path d="M106.46,35.47c2.71,0,5,4.35,5,9.5s-2.29,9.5-5,9.5-5-4.35-5-9.5,2.29-9.5,5-9.5m0-1c-3.31,0-6,4.7-6,10.5s2.69,10.5,6,10.5,6-4.7,6-10.5-2.69-10.5-6-10.5h0Z"/>
    </g>
    <path class="cls-60" d="M74.01,61.97h25.27s1.73,8-4.27,10-14.34,1.38-17,0c-1.9-.99-5.15-8.79-4-10Z"/>
  </g>
</svg>